<svg width="512" height="512" viewBox="0 0 512 512" fill="none" xmlns="http://www.w3.org/2000/svg">
  <rect width="512" height="512" rx="120" fill="#F7F2EA"/>
  <circle cx="256" cy="256" r="180" fill="#EEF1EB"/>
  <path d="M256 116C192 188 168 234 168 276C168 339 210 388 256 388C302 388 344 339 344 276C344 234 320 188 256 116Z" fill="#9DB9A3"/>
  <path d="M256 224C236 260 232 278 232 294C232 318 244 336 256 336C268 336 280 318 280 294C280 278 276 260 256 224Z" fill="#7BA08D"/>
  <path d="M240 320C240 310 248 302 258 302C268 302 276 310 276 320V344C276 354 268 362 258 362C248 362 240 354 240 344V320Z" fill="#6F8F7D"/>
  <rect x="230" y="362" width="56" height="10" rx="5" fill="#6F8F7D"/>
</svg>
