<svg width="1200" height="800" viewBox="0 0 1200 800" fill="none" xmlns="http://www.w3.org/2000/svg">
  <rect width="1200" height="800" fill="#F7F2EA"/>
  <rect width="1200" height="800" fill="url(#paint0_radial)" fill-opacity="0.9"/>
  <rect width="1200" height="800" fill="url(#paint1_linear)" fill-opacity="0.85"/>
  <path d="M200 650C350 520 520 500 680 560C840 620 980 620 1100 540V800H200V650Z" fill="#E8E0D4"/>
  <circle cx="250" cy="250" r="180" fill="#EEF1EB"/>
  <path d="M250 120C190 200 170 245 170 285C170 340 205 385 250 385C295 385 330 340 330 285C330 245 310 200 250 120Z" fill="#9DB9A3" fill-opacity="0.55"/>
  <defs>
    <radialGradient id="paint0_radial" cx="0" cy="0" r="1" gradientUnits="userSpaceOnUse" gradientTransform="translate(600 160) rotate(90) scale(360 520)">
      <stop stop-color="#AFCBBA"/>
      <stop offset="1" stop-color="#F7F2EA" stop-opacity="0"/>
    </radialGradient>
    <linearGradient id="paint1_linear" x1="600" y1="0" x2="600" y2="800" gradientUnits="userSpaceOnUse">
      <stop stop-color="#F7F2EA"/>
      <stop offset="0.5" stop-color="#EFE7DD"/>
      <stop offset="1" stop-color="#E6DACD"/>
    </linearGradient>
  </defs>
</svg>
